<?xml version="1.0" encoding="UTF-8" standalone="no"?>
<!DOCTYPE svg PUBLIC "-//W3C//DTD SVG 1.1//EN"
 "http://www.w3.org/Graphics/SVG/1.1/DTD/svg11.dtd">
<!-- Generated by graphviz version 2.43.0 (0)
 -->
<!-- Title: monitorGoalStatus Pages: 1 -->
<svg width="268pt" height="104pt"
 viewBox="0.00 0.00 268.00 104.00" xmlns="http://www.w3.org/2000/svg" xmlns:xlink="http://www.w3.org/1999/xlink">
<g id="graph0" class="graph" transform="scale(1 1) rotate(0) translate(4 100)">
<title>monitorGoalStatus</title>
<polygon fill="white" stroke="transparent" points="-4,4 -4,-100 264,-100 264,4 -4,4"/>
<!-- Node1 -->
<g id="node1" class="node">
<title>Node1</title>
<g id="a_node1"><a xlink:title="Monitors the goal status and updates flags accordingly.">
<polygon fill="#bfbfbf" stroke="black" points="0,-38.5 0,-57.5 108,-57.5 108,-38.5 0,-38.5"/>
<text text-anchor="middle" x="54" y="-45.5" font-family="Helvetica,sans-Serif" font-size="10.00">monitorGoalStatus</text>
</a>
</g>
</g>
<!-- Node2 -->
<g id="node2" class="node">
<title>Node2</title>
<g id="a_node2"><a xlink:href="action__client__node_8cpp.html#adfb2af476ffbaef72eac207d2c545eb1" target="_top" xlink:title="Atomic flag indicating whether the goal has been reached.">
<polygon fill="white" stroke="black" points="161,-76.5 161,-95.5 243,-95.5 243,-76.5 161,-76.5"/>
<text text-anchor="middle" x="202" y="-83.5" font-family="Helvetica,sans-Serif" font-size="10.00">goal_reached</text>
</a>
</g>
</g>
<!-- Node1&#45;&gt;Node2 -->
<g id="edge1" class="edge">
<title>Node1&#45;&gt;Node2</title>
<path fill="none" stroke="midnightblue" d="M91.84,-57.59C110.85,-62.54 134.23,-68.62 154.47,-73.89"/>
<polygon fill="midnightblue" stroke="midnightblue" points="153.86,-77.35 164.42,-76.48 155.63,-70.57 153.86,-77.35"/>
</g>
<!-- Node3 -->
<g id="node3" class="node">
<title>Node3</title>
<g id="a_node3"><a xlink:href="action__client__node_8cpp.html#ae77e5d68ff0f4892f5154064e8b5e21c" target="_top" xlink:title="Callback function to process odometry data.">
<polygon fill="white" stroke="black" points="159,-38.5 159,-57.5 245,-57.5 245,-38.5 159,-38.5"/>
<text text-anchor="middle" x="202" y="-45.5" font-family="Helvetica,sans-Serif" font-size="10.00">odomCallback</text>
</a>
</g>
</g>
<!-- Node1&#45;&gt;Node3 -->
<g id="edge2" class="edge">
<title>Node1&#45;&gt;Node3</title>
<path fill="none" stroke="midnightblue" d="M108.12,-48C121.25,-48 135.3,-48 148.4,-48"/>
<polygon fill="midnightblue" stroke="midnightblue" points="148.66,-51.5 158.66,-48 148.66,-44.5 148.66,-51.5"/>
</g>
<!-- Node4 -->
<g id="node4" class="node">
<title>Node4</title>
<g id="a_node4"><a xlink:href="action__client__node_8cpp.html#a6f6ab01ddb5446f255990ca90234be5f" target="_top" xlink:title="Atomic flag to request new coordinates from the user.">
<polygon fill="white" stroke="black" points="144,-0.5 144,-19.5 260,-19.5 260,-0.5 144,-0.5"/>
<text text-anchor="middle" x="202" y="-7.5" font-family="Helvetica,sans-Serif" font-size="10.00">request_coordinates</text>
</a>
</g>
</g>
<!-- Node1&#45;&gt;Node4 -->
<g id="edge3" class="edge">
<title>Node1&#45;&gt;Node4</title>
<path fill="none" stroke="midnightblue" d="M91.84,-38.41C110.85,-33.46 134.23,-27.38 154.47,-22.11"/>
<polygon fill="midnightblue" stroke="midnightblue" points="155.63,-25.43 164.42,-19.52 153.86,-18.65 155.63,-25.43"/>
</g>
</g>
</svg>
